<mxfile host="app.diagrams.net" modified="2024-04-04T03:35:59.639Z" agent="Mozilla/5.0 (Windows NT 10.0; Win64; x64) AppleWebKit/537.36 (KHTML, like Gecko) Chrome/123.0.0.0 Safari/537.36" etag="cCdXpn-T1SaRV3paKfx5" version="24.2.1" type="device">
  <diagram id="R2lEEEUBdFMjLlhIrx00" name="Page-1">
    <mxGraphModel dx="1513" dy="688" grid="1" gridSize="10" guides="1" tooltips="1" connect="1" arrows="1" fold="1" page="1" pageScale="1" pageWidth="1100" pageHeight="850" math="0" shadow="0" extFonts="Permanent Marker^https://fonts.googleapis.com/css?family=Permanent+Marker">
      <root>
        <mxCell id="0" />
        <mxCell id="1" parent="0" />
        <mxCell id="C-vyLk0tnHw3VtMMgP7b-23" value="medico" style="shape=table;startSize=30;container=1;collapsible=1;childLayout=tableLayout;fixedRows=1;rowLines=0;fontStyle=1;align=center;resizeLast=1;" parent="1" vertex="1">
          <mxGeometry x="40" y="325" width="260" height="165" as="geometry">
            <mxRectangle x="20" y="360" width="80" height="30" as="alternateBounds" />
          </mxGeometry>
        </mxCell>
        <mxCell id="C-vyLk0tnHw3VtMMgP7b-24" value="" style="shape=partialRectangle;collapsible=0;dropTarget=0;pointerEvents=0;fillColor=none;points=[[0,0.5],[1,0.5]];portConstraint=eastwest;top=0;left=0;right=0;bottom=1;" parent="C-vyLk0tnHw3VtMMgP7b-23" vertex="1">
          <mxGeometry y="30" width="260" height="30" as="geometry" />
        </mxCell>
        <mxCell id="C-vyLk0tnHw3VtMMgP7b-25" value="PK" style="shape=partialRectangle;overflow=hidden;connectable=0;fillColor=none;top=0;left=0;bottom=0;right=0;fontStyle=1;" parent="C-vyLk0tnHw3VtMMgP7b-24" vertex="1">
          <mxGeometry width="30" height="30" as="geometry">
            <mxRectangle width="30" height="30" as="alternateBounds" />
          </mxGeometry>
        </mxCell>
        <mxCell id="C-vyLk0tnHw3VtMMgP7b-26" value="id int NOT NULL " style="shape=partialRectangle;overflow=hidden;connectable=0;fillColor=none;top=0;left=0;bottom=0;right=0;align=left;spacingLeft=6;fontStyle=5;" parent="C-vyLk0tnHw3VtMMgP7b-24" vertex="1">
          <mxGeometry x="30" width="230" height="30" as="geometry">
            <mxRectangle width="230" height="30" as="alternateBounds" />
          </mxGeometry>
        </mxCell>
        <mxCell id="C-vyLk0tnHw3VtMMgP7b-27" value="" style="shape=partialRectangle;collapsible=0;dropTarget=0;pointerEvents=0;fillColor=none;points=[[0,0.5],[1,0.5]];portConstraint=eastwest;top=0;left=0;right=0;bottom=0;" parent="C-vyLk0tnHw3VtMMgP7b-23" vertex="1">
          <mxGeometry y="60" width="260" height="80" as="geometry" />
        </mxCell>
        <mxCell id="C-vyLk0tnHw3VtMMgP7b-28" value="" style="shape=partialRectangle;overflow=hidden;connectable=0;fillColor=none;top=0;left=0;bottom=0;right=0;" parent="C-vyLk0tnHw3VtMMgP7b-27" vertex="1">
          <mxGeometry width="30" height="80" as="geometry">
            <mxRectangle width="30" height="80" as="alternateBounds" />
          </mxGeometry>
        </mxCell>
        <mxCell id="C-vyLk0tnHw3VtMMgP7b-29" value="&#xa;" style="shape=partialRectangle;overflow=hidden;connectable=0;fillColor=none;top=0;left=0;bottom=0;right=0;align=left;spacingLeft=6;" parent="C-vyLk0tnHw3VtMMgP7b-27" vertex="1">
          <mxGeometry x="30" width="230" height="80" as="geometry">
            <mxRectangle width="230" height="80" as="alternateBounds" />
          </mxGeometry>
        </mxCell>
        <mxCell id="3fcEJhkpVDGF2DpAS4tB-67" value="diagnostico" style="shape=table;startSize=30;container=1;collapsible=1;childLayout=tableLayout;fixedRows=1;rowLines=0;fontStyle=1;align=center;resizeLast=1;" parent="1" vertex="1">
          <mxGeometry x="1090" y="173" width="240" height="107" as="geometry" />
        </mxCell>
        <mxCell id="3fcEJhkpVDGF2DpAS4tB-68" value="" style="shape=partialRectangle;collapsible=0;dropTarget=0;pointerEvents=0;fillColor=none;points=[[0,0.5],[1,0.5]];portConstraint=eastwest;top=0;left=0;right=0;bottom=1;" parent="3fcEJhkpVDGF2DpAS4tB-67" vertex="1">
          <mxGeometry y="30" width="240" height="30" as="geometry" />
        </mxCell>
        <mxCell id="3fcEJhkpVDGF2DpAS4tB-69" value="PK" style="shape=partialRectangle;overflow=hidden;connectable=0;fillColor=none;top=0;left=0;bottom=0;right=0;fontStyle=1;" parent="3fcEJhkpVDGF2DpAS4tB-68" vertex="1">
          <mxGeometry width="30" height="30" as="geometry">
            <mxRectangle width="30" height="30" as="alternateBounds" />
          </mxGeometry>
        </mxCell>
        <mxCell id="3fcEJhkpVDGF2DpAS4tB-70" value="id int NOT NULL " style="shape=partialRectangle;overflow=hidden;connectable=0;fillColor=none;top=0;left=0;bottom=0;right=0;align=left;spacingLeft=6;fontStyle=5;" parent="3fcEJhkpVDGF2DpAS4tB-68" vertex="1">
          <mxGeometry x="30" width="210" height="30" as="geometry">
            <mxRectangle width="210" height="30" as="alternateBounds" />
          </mxGeometry>
        </mxCell>
        <mxCell id="3fcEJhkpVDGF2DpAS4tB-71" value="" style="shape=partialRectangle;collapsible=0;dropTarget=0;pointerEvents=0;fillColor=none;points=[[0,0.5],[1,0.5]];portConstraint=eastwest;top=0;left=0;right=0;bottom=0;" parent="3fcEJhkpVDGF2DpAS4tB-67" vertex="1">
          <mxGeometry y="60" width="240" height="37" as="geometry" />
        </mxCell>
        <mxCell id="3fcEJhkpVDGF2DpAS4tB-72" value="FK1" style="shape=partialRectangle;overflow=hidden;connectable=0;fillColor=none;top=0;left=0;bottom=0;right=0;" parent="3fcEJhkpVDGF2DpAS4tB-71" vertex="1">
          <mxGeometry width="30" height="37" as="geometry">
            <mxRectangle width="30" height="37" as="alternateBounds" />
          </mxGeometry>
        </mxCell>
        <mxCell id="3fcEJhkpVDGF2DpAS4tB-73" value="id_consulta int NOT NULL" style="shape=partialRectangle;overflow=hidden;connectable=0;fillColor=none;top=0;left=0;bottom=0;right=0;align=left;spacingLeft=6;" parent="3fcEJhkpVDGF2DpAS4tB-71" vertex="1">
          <mxGeometry x="30" width="210" height="37" as="geometry">
            <mxRectangle width="210" height="37" as="alternateBounds" />
          </mxGeometry>
        </mxCell>
        <mxCell id="3fcEJhkpVDGF2DpAS4tB-88" value="centro" style="shape=table;startSize=30;container=1;collapsible=1;childLayout=tableLayout;fixedRows=1;rowLines=0;fontStyle=1;align=center;resizeLast=1;" parent="1" vertex="1">
          <mxGeometry x="770" y="440" width="220" height="120" as="geometry" />
        </mxCell>
        <mxCell id="3fcEJhkpVDGF2DpAS4tB-89" value="" style="shape=partialRectangle;collapsible=0;dropTarget=0;pointerEvents=0;fillColor=none;points=[[0,0.5],[1,0.5]];portConstraint=eastwest;top=0;left=0;right=0;bottom=1;" parent="3fcEJhkpVDGF2DpAS4tB-88" vertex="1">
          <mxGeometry y="30" width="220" height="30" as="geometry" />
        </mxCell>
        <mxCell id="3fcEJhkpVDGF2DpAS4tB-90" value="PK" style="shape=partialRectangle;overflow=hidden;connectable=0;fillColor=none;top=0;left=0;bottom=0;right=0;fontStyle=1;" parent="3fcEJhkpVDGF2DpAS4tB-89" vertex="1">
          <mxGeometry width="30" height="30" as="geometry">
            <mxRectangle width="30" height="30" as="alternateBounds" />
          </mxGeometry>
        </mxCell>
        <mxCell id="3fcEJhkpVDGF2DpAS4tB-91" value="id int NOT NULL " style="shape=partialRectangle;overflow=hidden;connectable=0;fillColor=none;top=0;left=0;bottom=0;right=0;align=left;spacingLeft=6;fontStyle=5;" parent="3fcEJhkpVDGF2DpAS4tB-89" vertex="1">
          <mxGeometry x="30" width="190" height="30" as="geometry">
            <mxRectangle width="190" height="30" as="alternateBounds" />
          </mxGeometry>
        </mxCell>
        <mxCell id="3fcEJhkpVDGF2DpAS4tB-92" value="" style="shape=partialRectangle;collapsible=0;dropTarget=0;pointerEvents=0;fillColor=none;points=[[0,0.5],[1,0.5]];portConstraint=eastwest;top=0;left=0;right=0;bottom=0;" parent="3fcEJhkpVDGF2DpAS4tB-88" vertex="1">
          <mxGeometry y="60" width="220" height="30" as="geometry" />
        </mxCell>
        <mxCell id="3fcEJhkpVDGF2DpAS4tB-93" value="" style="shape=partialRectangle;overflow=hidden;connectable=0;fillColor=none;top=0;left=0;bottom=0;right=0;" parent="3fcEJhkpVDGF2DpAS4tB-92" vertex="1">
          <mxGeometry width="30" height="30" as="geometry">
            <mxRectangle width="30" height="30" as="alternateBounds" />
          </mxGeometry>
        </mxCell>
        <mxCell id="3fcEJhkpVDGF2DpAS4tB-94" value="id_paciente int NOT NULL" style="shape=partialRectangle;overflow=hidden;connectable=0;fillColor=none;top=0;left=0;bottom=0;right=0;align=left;spacingLeft=6;" parent="3fcEJhkpVDGF2DpAS4tB-92" vertex="1">
          <mxGeometry x="30" width="190" height="30" as="geometry">
            <mxRectangle width="190" height="30" as="alternateBounds" />
          </mxGeometry>
        </mxCell>
        <mxCell id="3fcEJhkpVDGF2DpAS4tB-95" value="licencia" style="shape=table;startSize=30;container=1;collapsible=1;childLayout=tableLayout;fixedRows=1;rowLines=0;fontStyle=1;align=center;resizeLast=1;" parent="1" vertex="1">
          <mxGeometry x="1390" y="223" width="240" height="177" as="geometry" />
        </mxCell>
        <mxCell id="3fcEJhkpVDGF2DpAS4tB-96" value="" style="shape=partialRectangle;collapsible=0;dropTarget=0;pointerEvents=0;fillColor=none;points=[[0,0.5],[1,0.5]];portConstraint=eastwest;top=0;left=0;right=0;bottom=1;" parent="3fcEJhkpVDGF2DpAS4tB-95" vertex="1">
          <mxGeometry y="30" width="240" height="30" as="geometry" />
        </mxCell>
        <mxCell id="3fcEJhkpVDGF2DpAS4tB-97" value="PK" style="shape=partialRectangle;overflow=hidden;connectable=0;fillColor=none;top=0;left=0;bottom=0;right=0;fontStyle=1;" parent="3fcEJhkpVDGF2DpAS4tB-96" vertex="1">
          <mxGeometry width="30" height="30" as="geometry">
            <mxRectangle width="30" height="30" as="alternateBounds" />
          </mxGeometry>
        </mxCell>
        <mxCell id="3fcEJhkpVDGF2DpAS4tB-98" value="id int NOT NULL " style="shape=partialRectangle;overflow=hidden;connectable=0;fillColor=none;top=0;left=0;bottom=0;right=0;align=left;spacingLeft=6;fontStyle=5;" parent="3fcEJhkpVDGF2DpAS4tB-96" vertex="1">
          <mxGeometry x="30" width="210" height="30" as="geometry">
            <mxRectangle width="210" height="30" as="alternateBounds" />
          </mxGeometry>
        </mxCell>
        <mxCell id="3fcEJhkpVDGF2DpAS4tB-99" value="" style="shape=partialRectangle;collapsible=0;dropTarget=0;pointerEvents=0;fillColor=none;points=[[0,0.5],[1,0.5]];portConstraint=eastwest;top=0;left=0;right=0;bottom=0;" parent="3fcEJhkpVDGF2DpAS4tB-95" vertex="1">
          <mxGeometry y="60" width="240" height="20" as="geometry" />
        </mxCell>
        <mxCell id="3fcEJhkpVDGF2DpAS4tB-100" value="" style="shape=partialRectangle;overflow=hidden;connectable=0;fillColor=none;top=0;left=0;bottom=0;right=0;" parent="3fcEJhkpVDGF2DpAS4tB-99" vertex="1">
          <mxGeometry width="30" height="20" as="geometry">
            <mxRectangle width="30" height="20" as="alternateBounds" />
          </mxGeometry>
        </mxCell>
        <mxCell id="3fcEJhkpVDGF2DpAS4tB-101" value="" style="shape=partialRectangle;overflow=hidden;connectable=0;fillColor=none;top=0;left=0;bottom=0;right=0;align=left;spacingLeft=6;" parent="3fcEJhkpVDGF2DpAS4tB-99" vertex="1">
          <mxGeometry x="30" width="210" height="20" as="geometry">
            <mxRectangle width="210" height="20" as="alternateBounds" />
          </mxGeometry>
        </mxCell>
        <mxCell id="3fcEJhkpVDGF2DpAS4tB-102" value="paciente" style="shape=table;startSize=30;container=1;collapsible=1;childLayout=tableLayout;fixedRows=1;rowLines=0;fontStyle=1;align=center;resizeLast=1;" parent="1" vertex="1">
          <mxGeometry x="450" y="310" width="265" height="130" as="geometry" />
        </mxCell>
        <mxCell id="3fcEJhkpVDGF2DpAS4tB-103" value="" style="shape=partialRectangle;collapsible=0;dropTarget=0;pointerEvents=0;fillColor=none;points=[[0,0.5],[1,0.5]];portConstraint=eastwest;top=0;left=0;right=0;bottom=1;" parent="3fcEJhkpVDGF2DpAS4tB-102" vertex="1">
          <mxGeometry y="30" width="265" height="30" as="geometry" />
        </mxCell>
        <mxCell id="3fcEJhkpVDGF2DpAS4tB-104" value="PK" style="shape=partialRectangle;overflow=hidden;connectable=0;fillColor=none;top=0;left=0;bottom=0;right=0;fontStyle=1;" parent="3fcEJhkpVDGF2DpAS4tB-103" vertex="1">
          <mxGeometry width="30" height="30" as="geometry">
            <mxRectangle width="30" height="30" as="alternateBounds" />
          </mxGeometry>
        </mxCell>
        <mxCell id="3fcEJhkpVDGF2DpAS4tB-105" value="id int NOT NULL " style="shape=partialRectangle;overflow=hidden;connectable=0;fillColor=none;top=0;left=0;bottom=0;right=0;align=left;spacingLeft=6;fontStyle=5;" parent="3fcEJhkpVDGF2DpAS4tB-103" vertex="1">
          <mxGeometry x="30" width="235" height="30" as="geometry">
            <mxRectangle width="235" height="30" as="alternateBounds" />
          </mxGeometry>
        </mxCell>
        <mxCell id="3fcEJhkpVDGF2DpAS4tB-106" value="" style="shape=partialRectangle;collapsible=0;dropTarget=0;pointerEvents=0;fillColor=none;points=[[0,0.5],[1,0.5]];portConstraint=eastwest;top=0;left=0;right=0;bottom=0;" parent="3fcEJhkpVDGF2DpAS4tB-102" vertex="1">
          <mxGeometry y="60" width="265" height="20" as="geometry" />
        </mxCell>
        <mxCell id="3fcEJhkpVDGF2DpAS4tB-107" value="FK" style="shape=partialRectangle;overflow=hidden;connectable=0;fillColor=none;top=0;left=0;bottom=0;right=0;" parent="3fcEJhkpVDGF2DpAS4tB-106" vertex="1">
          <mxGeometry width="30" height="20" as="geometry">
            <mxRectangle width="30" height="20" as="alternateBounds" />
          </mxGeometry>
        </mxCell>
        <mxCell id="3fcEJhkpVDGF2DpAS4tB-108" value="id_centro NOT NULL" style="shape=partialRectangle;overflow=hidden;connectable=0;fillColor=none;top=0;left=0;bottom=0;right=0;align=left;spacingLeft=6;" parent="3fcEJhkpVDGF2DpAS4tB-106" vertex="1">
          <mxGeometry x="30" width="235" height="20" as="geometry">
            <mxRectangle width="235" height="20" as="alternateBounds" />
          </mxGeometry>
        </mxCell>
        <mxCell id="T5NWAOCeS2u0NAfTFQHm-5" value="       nombre_paciente varchar(30) NOT NULL" style="shape=partialRectangle;overflow=hidden;connectable=0;fillColor=none;top=0;left=0;bottom=0;right=0;align=left;spacingLeft=6;" vertex="1" parent="1">
          <mxGeometry x="455" y="390" width="260" height="20" as="geometry">
            <mxRectangle width="270" height="20" as="alternateBounds" />
          </mxGeometry>
        </mxCell>
        <mxCell id="T5NWAOCeS2u0NAfTFQHm-21" value="" style="shape=partialRectangle;collapsible=0;dropTarget=0;pointerEvents=0;fillColor=none;points=[[0,0.5],[1,0.5]];portConstraint=eastwest;top=0;left=0;right=0;bottom=0;" vertex="1" parent="1">
          <mxGeometry x="760" y="151" width="230" height="19" as="geometry" />
        </mxCell>
        <mxCell id="T5NWAOCeS2u0NAfTFQHm-22" value="FK2" style="shape=partialRectangle;overflow=hidden;connectable=0;fillColor=none;top=0;left=0;bottom=0;right=0;" vertex="1" parent="T5NWAOCeS2u0NAfTFQHm-21">
          <mxGeometry width="31.363636363636363" height="19" as="geometry">
            <mxRectangle width="30" height="30" as="alternateBounds" />
          </mxGeometry>
        </mxCell>
        <mxCell id="T5NWAOCeS2u0NAfTFQHm-23" value="id_paciente int NOT NULL" style="shape=partialRectangle;overflow=hidden;connectable=0;fillColor=none;top=0;left=0;bottom=0;right=0;align=left;spacingLeft=6;" vertex="1" parent="T5NWAOCeS2u0NAfTFQHm-21">
          <mxGeometry x="31.363636363636363" width="198.63636363636363" height="19" as="geometry">
            <mxRectangle width="190" height="30" as="alternateBounds" />
          </mxGeometry>
        </mxCell>
        <mxCell id="T5NWAOCeS2u0NAfTFQHm-24" value="" style="shape=partialRectangle;collapsible=0;dropTarget=0;pointerEvents=0;fillColor=none;points=[[0,0.5],[1,0.5]];portConstraint=eastwest;top=0;left=0;right=0;bottom=0;" vertex="1" parent="1">
          <mxGeometry x="770" y="520" width="220" height="30" as="geometry" />
        </mxCell>
        <mxCell id="T5NWAOCeS2u0NAfTFQHm-25" value="" style="shape=partialRectangle;overflow=hidden;connectable=0;fillColor=none;top=0;left=0;bottom=0;right=0;" vertex="1" parent="T5NWAOCeS2u0NAfTFQHm-24">
          <mxGeometry width="30" height="30" as="geometry">
            <mxRectangle width="30" height="30" as="alternateBounds" />
          </mxGeometry>
        </mxCell>
        <mxCell id="T5NWAOCeS2u0NAfTFQHm-26" value="nombre_centro varchar(50)" style="shape=partialRectangle;overflow=hidden;connectable=0;fillColor=none;top=0;left=0;bottom=0;right=0;align=left;spacingLeft=6;" vertex="1" parent="T5NWAOCeS2u0NAfTFQHm-24">
          <mxGeometry x="30" width="190" height="30" as="geometry">
            <mxRectangle width="190" height="30" as="alternateBounds" />
          </mxGeometry>
        </mxCell>
        <mxCell id="T5NWAOCeS2u0NAfTFQHm-27" value="consulta" style="shape=table;startSize=30;container=1;collapsible=1;childLayout=tableLayout;fixedRows=1;rowLines=0;fontStyle=1;align=center;resizeLast=1;" vertex="1" parent="1">
          <mxGeometry x="760" y="65" width="230" height="185" as="geometry">
            <mxRectangle x="20" y="360" width="80" height="30" as="alternateBounds" />
          </mxGeometry>
        </mxCell>
        <mxCell id="T5NWAOCeS2u0NAfTFQHm-28" value="" style="shape=partialRectangle;collapsible=0;dropTarget=0;pointerEvents=0;fillColor=none;points=[[0,0.5],[1,0.5]];portConstraint=eastwest;top=0;left=0;right=0;bottom=1;" vertex="1" parent="T5NWAOCeS2u0NAfTFQHm-27">
          <mxGeometry y="30" width="230" height="30" as="geometry" />
        </mxCell>
        <mxCell id="T5NWAOCeS2u0NAfTFQHm-29" value="PK" style="shape=partialRectangle;overflow=hidden;connectable=0;fillColor=none;top=0;left=0;bottom=0;right=0;fontStyle=1;" vertex="1" parent="T5NWAOCeS2u0NAfTFQHm-28">
          <mxGeometry width="30" height="30" as="geometry">
            <mxRectangle width="30" height="30" as="alternateBounds" />
          </mxGeometry>
        </mxCell>
        <mxCell id="T5NWAOCeS2u0NAfTFQHm-30" value="id int NOT NULL " style="shape=partialRectangle;overflow=hidden;connectable=0;fillColor=none;top=0;left=0;bottom=0;right=0;align=left;spacingLeft=6;fontStyle=5;" vertex="1" parent="T5NWAOCeS2u0NAfTFQHm-28">
          <mxGeometry x="30" width="200" height="30" as="geometry">
            <mxRectangle width="200" height="30" as="alternateBounds" />
          </mxGeometry>
        </mxCell>
        <mxCell id="T5NWAOCeS2u0NAfTFQHm-31" value="" style="shape=partialRectangle;collapsible=0;dropTarget=0;pointerEvents=0;fillColor=none;points=[[0,0.5],[1,0.5]];portConstraint=eastwest;top=0;left=0;right=0;bottom=0;" vertex="1" parent="T5NWAOCeS2u0NAfTFQHm-27">
          <mxGeometry y="60" width="230" height="31" as="geometry" />
        </mxCell>
        <mxCell id="T5NWAOCeS2u0NAfTFQHm-32" value="" style="shape=partialRectangle;overflow=hidden;connectable=0;fillColor=none;top=0;left=0;bottom=0;right=0;" vertex="1" parent="T5NWAOCeS2u0NAfTFQHm-31">
          <mxGeometry width="30" height="31" as="geometry">
            <mxRectangle width="30" height="31" as="alternateBounds" />
          </mxGeometry>
        </mxCell>
        <mxCell id="T5NWAOCeS2u0NAfTFQHm-33" value="" style="shape=partialRectangle;overflow=hidden;connectable=0;fillColor=none;top=0;left=0;bottom=0;right=0;align=left;spacingLeft=6;" vertex="1" parent="T5NWAOCeS2u0NAfTFQHm-31">
          <mxGeometry x="30" width="200" height="31" as="geometry">
            <mxRectangle width="200" height="31" as="alternateBounds" />
          </mxGeometry>
        </mxCell>
        <mxCell id="T5NWAOCeS2u0NAfTFQHm-38" value="" style="shape=partialRectangle;collapsible=0;dropTarget=0;pointerEvents=0;fillColor=none;points=[[0,0.5],[1,0.5]];portConstraint=eastwest;top=0;left=0;right=0;bottom=0;" vertex="1" parent="1">
          <mxGeometry x="40" y="384.5" width="260" height="30" as="geometry" />
        </mxCell>
        <mxCell id="T5NWAOCeS2u0NAfTFQHm-39" value="" style="shape=partialRectangle;overflow=hidden;connectable=0;fillColor=none;top=0;left=0;bottom=0;right=0;" vertex="1" parent="T5NWAOCeS2u0NAfTFQHm-38">
          <mxGeometry width="35.45454545454545" height="30" as="geometry">
            <mxRectangle width="30" height="30" as="alternateBounds" />
          </mxGeometry>
        </mxCell>
        <mxCell id="T5NWAOCeS2u0NAfTFQHm-40" value="nombre varchar(50) NOT NULL" style="shape=partialRectangle;overflow=hidden;connectable=0;fillColor=none;top=0;left=0;bottom=0;right=0;align=left;spacingLeft=6;" vertex="1" parent="T5NWAOCeS2u0NAfTFQHm-38">
          <mxGeometry x="35.45454545454545" width="224.54545454545456" height="30" as="geometry">
            <mxRectangle width="190" height="30" as="alternateBounds" />
          </mxGeometry>
        </mxCell>
        <mxCell id="T5NWAOCeS2u0NAfTFQHm-43" value="" style="shape=partialRectangle;collapsible=0;dropTarget=0;pointerEvents=0;fillColor=none;points=[[0,0.5],[1,0.5]];portConstraint=eastwest;top=0;left=0;right=0;bottom=0;" vertex="1" parent="1">
          <mxGeometry x="760" y="190" width="230" height="14" as="geometry" />
        </mxCell>
        <mxCell id="T5NWAOCeS2u0NAfTFQHm-44" value="" style="shape=partialRectangle;overflow=hidden;connectable=0;fillColor=none;top=0;left=0;bottom=0;right=0;" vertex="1" parent="T5NWAOCeS2u0NAfTFQHm-43">
          <mxGeometry width="31.36363636363636" height="14" as="geometry">
            <mxRectangle width="30" height="30" as="alternateBounds" />
          </mxGeometry>
        </mxCell>
        <mxCell id="T5NWAOCeS2u0NAfTFQHm-45" value="fecha date NOT NULL" style="shape=partialRectangle;overflow=hidden;connectable=0;fillColor=none;top=0;left=0;bottom=0;right=0;align=left;spacingLeft=6;" vertex="1" parent="T5NWAOCeS2u0NAfTFQHm-43">
          <mxGeometry x="31.36363636363636" width="198.63636363636365" height="14" as="geometry">
            <mxRectangle width="190" height="30" as="alternateBounds" />
          </mxGeometry>
        </mxCell>
        <mxCell id="T5NWAOCeS2u0NAfTFQHm-46" value="" style="shape=partialRectangle;collapsible=0;dropTarget=0;pointerEvents=0;fillColor=none;points=[[0,0.5],[1,0.5]];portConstraint=eastwest;top=0;left=0;right=0;bottom=0;" vertex="1" parent="1">
          <mxGeometry x="760" y="220" width="230" height="15" as="geometry" />
        </mxCell>
        <mxCell id="T5NWAOCeS2u0NAfTFQHm-47" value="" style="shape=partialRectangle;overflow=hidden;connectable=0;fillColor=none;top=0;left=0;bottom=0;right=0;" vertex="1" parent="T5NWAOCeS2u0NAfTFQHm-46">
          <mxGeometry width="31.36363636363636" height="15" as="geometry">
            <mxRectangle width="30" height="30" as="alternateBounds" />
          </mxGeometry>
        </mxCell>
        <mxCell id="T5NWAOCeS2u0NAfTFQHm-49" value="" style="shape=partialRectangle;collapsible=0;dropTarget=0;pointerEvents=0;fillColor=none;points=[[0,0.5],[1,0.5]];portConstraint=eastwest;top=0;left=0;right=0;bottom=0;" vertex="1" parent="1">
          <mxGeometry x="40" y="430" width="260" height="30" as="geometry" />
        </mxCell>
        <mxCell id="T5NWAOCeS2u0NAfTFQHm-50" value="" style="shape=partialRectangle;overflow=hidden;connectable=0;fillColor=none;top=0;left=0;bottom=0;right=0;" vertex="1" parent="T5NWAOCeS2u0NAfTFQHm-49">
          <mxGeometry width="35.45454545454545" height="30" as="geometry">
            <mxRectangle width="30" height="30" as="alternateBounds" />
          </mxGeometry>
        </mxCell>
        <mxCell id="T5NWAOCeS2u0NAfTFQHm-51" value="id_especialidad NOT NULL" style="shape=partialRectangle;overflow=hidden;connectable=0;fillColor=none;top=0;left=0;bottom=0;right=0;align=left;spacingLeft=6;" vertex="1" parent="T5NWAOCeS2u0NAfTFQHm-49">
          <mxGeometry x="35.45454545454545" width="224.54545454545456" height="30" as="geometry">
            <mxRectangle width="190" height="30" as="alternateBounds" />
          </mxGeometry>
        </mxCell>
        <mxCell id="T5NWAOCeS2u0NAfTFQHm-53" value="especialidad" style="shape=table;startSize=30;container=1;collapsible=1;childLayout=tableLayout;fixedRows=1;rowLines=0;fontStyle=1;align=center;resizeLast=1;" vertex="1" parent="1">
          <mxGeometry x="401" y="70" width="239" height="140" as="geometry">
            <mxRectangle x="20" y="360" width="80" height="30" as="alternateBounds" />
          </mxGeometry>
        </mxCell>
        <mxCell id="T5NWAOCeS2u0NAfTFQHm-54" value="" style="shape=partialRectangle;collapsible=0;dropTarget=0;pointerEvents=0;fillColor=none;points=[[0,0.5],[1,0.5]];portConstraint=eastwest;top=0;left=0;right=0;bottom=1;" vertex="1" parent="T5NWAOCeS2u0NAfTFQHm-53">
          <mxGeometry y="30" width="239" height="30" as="geometry" />
        </mxCell>
        <mxCell id="T5NWAOCeS2u0NAfTFQHm-55" value="PK" style="shape=partialRectangle;overflow=hidden;connectable=0;fillColor=none;top=0;left=0;bottom=0;right=0;fontStyle=1;" vertex="1" parent="T5NWAOCeS2u0NAfTFQHm-54">
          <mxGeometry width="30" height="30" as="geometry">
            <mxRectangle width="30" height="30" as="alternateBounds" />
          </mxGeometry>
        </mxCell>
        <mxCell id="T5NWAOCeS2u0NAfTFQHm-56" value="id int NOT NULL " style="shape=partialRectangle;overflow=hidden;connectable=0;fillColor=none;top=0;left=0;bottom=0;right=0;align=left;spacingLeft=6;fontStyle=5;" vertex="1" parent="T5NWAOCeS2u0NAfTFQHm-54">
          <mxGeometry x="30" width="209" height="30" as="geometry">
            <mxRectangle width="209" height="30" as="alternateBounds" />
          </mxGeometry>
        </mxCell>
        <mxCell id="T5NWAOCeS2u0NAfTFQHm-57" value="" style="shape=partialRectangle;collapsible=0;dropTarget=0;pointerEvents=0;fillColor=none;points=[[0,0.5],[1,0.5]];portConstraint=eastwest;top=0;left=0;right=0;bottom=0;" vertex="1" parent="T5NWAOCeS2u0NAfTFQHm-53">
          <mxGeometry y="60" width="239" height="80" as="geometry" />
        </mxCell>
        <mxCell id="T5NWAOCeS2u0NAfTFQHm-58" value="" style="shape=partialRectangle;overflow=hidden;connectable=0;fillColor=none;top=0;left=0;bottom=0;right=0;" vertex="1" parent="T5NWAOCeS2u0NAfTFQHm-57">
          <mxGeometry width="30" height="80" as="geometry">
            <mxRectangle width="30" height="80" as="alternateBounds" />
          </mxGeometry>
        </mxCell>
        <mxCell id="T5NWAOCeS2u0NAfTFQHm-59" value="&#xa;" style="shape=partialRectangle;overflow=hidden;connectable=0;fillColor=none;top=0;left=0;bottom=0;right=0;align=left;spacingLeft=6;" vertex="1" parent="T5NWAOCeS2u0NAfTFQHm-57">
          <mxGeometry x="30" width="209" height="80" as="geometry">
            <mxRectangle width="209" height="80" as="alternateBounds" />
          </mxGeometry>
        </mxCell>
        <mxCell id="T5NWAOCeS2u0NAfTFQHm-60" value="" style="shape=partialRectangle;collapsible=0;dropTarget=0;pointerEvents=0;fillColor=none;points=[[0,0.5],[1,0.5]];portConstraint=eastwest;top=0;left=0;right=0;bottom=0;" vertex="1" parent="1">
          <mxGeometry x="401" y="130" width="260" height="30" as="geometry" />
        </mxCell>
        <mxCell id="T5NWAOCeS2u0NAfTFQHm-61" value="" style="shape=partialRectangle;overflow=hidden;connectable=0;fillColor=none;top=0;left=0;bottom=0;right=0;" vertex="1" parent="T5NWAOCeS2u0NAfTFQHm-60">
          <mxGeometry width="35.45454545454545" height="30" as="geometry">
            <mxRectangle width="30" height="30" as="alternateBounds" />
          </mxGeometry>
        </mxCell>
        <mxCell id="T5NWAOCeS2u0NAfTFQHm-62" value="id_medico varchar(50) NOT NULL" style="shape=partialRectangle;overflow=hidden;connectable=0;fillColor=none;top=0;left=0;bottom=0;right=0;align=left;spacingLeft=6;" vertex="1" parent="T5NWAOCeS2u0NAfTFQHm-60">
          <mxGeometry x="35.45454545454545" width="224.54545454545456" height="30" as="geometry">
            <mxRectangle width="190" height="30" as="alternateBounds" />
          </mxGeometry>
        </mxCell>
        <mxCell id="T5NWAOCeS2u0NAfTFQHm-63" value="" style="shape=partialRectangle;collapsible=0;dropTarget=0;pointerEvents=0;fillColor=none;points=[[0,0.5],[1,0.5]];portConstraint=eastwest;top=0;left=0;right=0;bottom=0;" vertex="1" parent="1">
          <mxGeometry x="401" y="150" width="260" height="20" as="geometry" />
        </mxCell>
        <mxCell id="T5NWAOCeS2u0NAfTFQHm-64" value="" style="shape=partialRectangle;overflow=hidden;connectable=0;fillColor=none;top=0;left=0;bottom=0;right=0;" vertex="1" parent="T5NWAOCeS2u0NAfTFQHm-63">
          <mxGeometry width="35.45454545454545" height="20" as="geometry">
            <mxRectangle width="30" height="30" as="alternateBounds" />
          </mxGeometry>
        </mxCell>
        <mxCell id="T5NWAOCeS2u0NAfTFQHm-65" value="espacialidad boolean NOT NULL" style="shape=partialRectangle;overflow=hidden;connectable=0;fillColor=none;top=0;left=0;bottom=0;right=0;align=left;spacingLeft=6;" vertex="1" parent="T5NWAOCeS2u0NAfTFQHm-63">
          <mxGeometry x="35.45454545454545" width="224.54545454545456" height="20" as="geometry">
            <mxRectangle width="190" height="30" as="alternateBounds" />
          </mxGeometry>
        </mxCell>
        <mxCell id="T5NWAOCeS2u0NAfTFQHm-66" value="" style="edgeStyle=entityRelationEdgeStyle;endArrow=ERzeroToMany;startArrow=ERone;endFill=1;startFill=0;exitX=0.005;exitY=0.312;exitDx=0;exitDy=0;exitPerimeter=0;" edge="1" parent="1" source="T5NWAOCeS2u0NAfTFQHm-60" target="C-vyLk0tnHw3VtMMgP7b-24">
          <mxGeometry width="100" height="100" relative="1" as="geometry">
            <mxPoint x="260" y="92" as="sourcePoint" />
            <mxPoint x="-100" y="322" as="targetPoint" />
            <Array as="points">
              <mxPoint x="-210" y="377" />
              <mxPoint x="60" y="132" />
              <mxPoint x="-100" y="162" />
              <mxPoint x="-90" y="-103" />
              <mxPoint x="542.76" y="539.55" />
              <mxPoint x="-240" y="487" />
              <mxPoint x="-210" y="387" />
              <mxPoint x="-190" y="377" />
              <mxPoint x="816" y="529.55" />
              <mxPoint x="806" y="519.55" />
            </Array>
          </mxGeometry>
        </mxCell>
        <mxCell id="T5NWAOCeS2u0NAfTFQHm-75" value="" style="shape=partialRectangle;collapsible=0;dropTarget=0;pointerEvents=0;fillColor=none;points=[[0,0.5],[1,0.5]];portConstraint=eastwest;top=0;left=0;right=0;bottom=0;" vertex="1" parent="1">
          <mxGeometry x="759" y="129" width="230" height="21" as="geometry" />
        </mxCell>
        <mxCell id="T5NWAOCeS2u0NAfTFQHm-76" value="FK1" style="shape=partialRectangle;overflow=hidden;connectable=0;fillColor=none;top=0;left=0;bottom=0;right=0;" vertex="1" parent="T5NWAOCeS2u0NAfTFQHm-75">
          <mxGeometry width="31.36363636363636" height="21" as="geometry">
            <mxRectangle width="30" height="30" as="alternateBounds" />
          </mxGeometry>
        </mxCell>
        <mxCell id="T5NWAOCeS2u0NAfTFQHm-77" value="id_especialidad int NOT NULL" style="shape=partialRectangle;overflow=hidden;connectable=0;fillColor=none;top=0;left=0;bottom=0;right=0;align=left;spacingLeft=6;" vertex="1" parent="T5NWAOCeS2u0NAfTFQHm-75">
          <mxGeometry x="31.36363636363636" width="198.63636363636365" height="21" as="geometry">
            <mxRectangle width="190" height="30" as="alternateBounds" />
          </mxGeometry>
        </mxCell>
        <mxCell id="T5NWAOCeS2u0NAfTFQHm-78" value="" style="edgeStyle=entityRelationEdgeStyle;endArrow=ERzeroToMany;startArrow=ERone;endFill=1;startFill=0;entryX=1;entryY=0.25;entryDx=0;entryDy=0;exitX=0;exitY=0.5;exitDx=0;exitDy=0;" edge="1" parent="1" source="T5NWAOCeS2u0NAfTFQHm-75" target="T5NWAOCeS2u0NAfTFQHm-53">
          <mxGeometry width="100" height="100" relative="1" as="geometry">
            <mxPoint x="920" y="452.54999999999995" as="sourcePoint" />
            <mxPoint x="500" y="150" as="targetPoint" />
            <Array as="points">
              <mxPoint x="676.76" y="327.54999999999995" />
              <mxPoint x="950" y="317.54999999999995" />
              <mxPoint x="940" y="307.54999999999995" />
            </Array>
          </mxGeometry>
        </mxCell>
        <mxCell id="T5NWAOCeS2u0NAfTFQHm-89" value="" style="shape=partialRectangle;collapsible=0;dropTarget=0;pointerEvents=0;fillColor=none;points=[[0,0.5],[1,0.5]];portConstraint=eastwest;top=0;left=0;right=0;bottom=0;" vertex="1" parent="1">
          <mxGeometry x="1090" y="260" width="210" height="37" as="geometry" />
        </mxCell>
        <mxCell id="T5NWAOCeS2u0NAfTFQHm-90" value="" style="shape=partialRectangle;overflow=hidden;connectable=0;fillColor=none;top=0;left=0;bottom=0;right=0;" vertex="1" parent="T5NWAOCeS2u0NAfTFQHm-89">
          <mxGeometry width="30" height="37" as="geometry">
            <mxRectangle width="30" height="37" as="alternateBounds" />
          </mxGeometry>
        </mxCell>
        <mxCell id="T5NWAOCeS2u0NAfTFQHm-91" value="" style="shape=partialRectangle;overflow=hidden;connectable=0;fillColor=none;top=0;left=0;bottom=0;right=0;align=left;spacingLeft=6;" vertex="1" parent="T5NWAOCeS2u0NAfTFQHm-89">
          <mxGeometry x="30" width="180" height="37" as="geometry">
            <mxRectangle width="180" height="37" as="alternateBounds" />
          </mxGeometry>
        </mxCell>
        <mxCell id="T5NWAOCeS2u0NAfTFQHm-93" value="" style="edgeStyle=entityRelationEdgeStyle;endArrow=ERzeroToMany;startArrow=ERone;endFill=1;startFill=0;entryX=1;entryY=0.5;entryDx=0;entryDy=0;exitX=0;exitY=0.5;exitDx=0;exitDy=0;" edge="1" parent="1" source="3fcEJhkpVDGF2DpAS4tB-71" target="T5NWAOCeS2u0NAfTFQHm-28">
          <mxGeometry width="100" height="100" relative="1" as="geometry">
            <mxPoint x="1580" y="482.54999999999995" as="sourcePoint" />
            <mxPoint x="1160" y="180" as="targetPoint" />
            <Array as="points">
              <mxPoint x="1336.76" y="357.54999999999995" />
              <mxPoint x="1610" y="347.54999999999995" />
              <mxPoint x="1600" y="337.54999999999995" />
            </Array>
          </mxGeometry>
        </mxCell>
        <mxCell id="T5NWAOCeS2u0NAfTFQHm-94" value="" style="shape=partialRectangle;collapsible=0;dropTarget=0;pointerEvents=0;fillColor=none;points=[[0,0.5],[1,0.5]];portConstraint=eastwest;top=0;left=0;right=0;bottom=0;" vertex="1" parent="1">
          <mxGeometry x="1390" y="290" width="300" height="20" as="geometry" />
        </mxCell>
        <mxCell id="T5NWAOCeS2u0NAfTFQHm-95" value="FK" style="shape=partialRectangle;overflow=hidden;connectable=0;fillColor=none;top=0;left=0;bottom=0;right=0;" vertex="1" parent="T5NWAOCeS2u0NAfTFQHm-94">
          <mxGeometry width="30" height="20" as="geometry">
            <mxRectangle width="30" height="20" as="alternateBounds" />
          </mxGeometry>
        </mxCell>
        <mxCell id="T5NWAOCeS2u0NAfTFQHm-96" value="id_diagnostico int NOT NULL&#xa;" style="shape=partialRectangle;overflow=hidden;connectable=0;fillColor=none;top=0;left=0;bottom=0;right=0;align=left;spacingLeft=6;" vertex="1" parent="T5NWAOCeS2u0NAfTFQHm-94">
          <mxGeometry x="30" width="270" height="20" as="geometry">
            <mxRectangle width="270" height="20" as="alternateBounds" />
          </mxGeometry>
        </mxCell>
        <mxCell id="T5NWAOCeS2u0NAfTFQHm-101" value="" style="edgeStyle=entityRelationEdgeStyle;fontSize=12;html=1;endArrow=ERmandOne;startArrow=ERmandOne;rounded=0;exitX=1;exitY=0.5;exitDx=0;exitDy=0;entryX=0;entryY=0.5;entryDx=0;entryDy=0;" edge="1" parent="1" source="3fcEJhkpVDGF2DpAS4tB-68" target="T5NWAOCeS2u0NAfTFQHm-94">
          <mxGeometry width="100" height="100" relative="1" as="geometry">
            <mxPoint x="1435" y="513" as="sourcePoint" />
            <mxPoint x="1625" y="337" as="targetPoint" />
          </mxGeometry>
        </mxCell>
        <mxCell id="T5NWAOCeS2u0NAfTFQHm-104" value="" style="edgeStyle=entityRelationEdgeStyle;endArrow=ERzeroToMany;startArrow=ERone;endFill=1;startFill=0;exitX=1;exitY=0.5;exitDx=0;exitDy=0;entryX=0;entryY=0.5;entryDx=0;entryDy=0;" edge="1" parent="1" source="3fcEJhkpVDGF2DpAS4tB-103" target="T5NWAOCeS2u0NAfTFQHm-21">
          <mxGeometry width="100" height="100" relative="1" as="geometry">
            <mxPoint x="720" y="350" as="sourcePoint" />
            <mxPoint x="770" y="270" as="targetPoint" />
            <Array as="points">
              <mxPoint x="906.76" y="542.55" />
              <mxPoint x="1180" y="532.55" />
              <mxPoint x="1170" y="522.55" />
            </Array>
          </mxGeometry>
        </mxCell>
        <mxCell id="T5NWAOCeS2u0NAfTFQHm-105" value="" style="edgeStyle=entityRelationEdgeStyle;endArrow=ERzeroToMany;startArrow=ERone;endFill=1;startFill=0;entryX=1;entryY=0.5;entryDx=0;entryDy=0;exitX=1;exitY=0.5;exitDx=0;exitDy=0;" edge="1" parent="1" source="3fcEJhkpVDGF2DpAS4tB-89" target="T5NWAOCeS2u0NAfTFQHm-106">
          <mxGeometry width="100" height="100" relative="1" as="geometry">
            <mxPoint x="1150" y="487" as="sourcePoint" />
            <mxPoint x="1050" y="360" as="targetPoint" />
            <Array as="points">
              <mxPoint x="1396.76" y="592.55" />
              <mxPoint x="1670" y="582.55" />
              <mxPoint x="1660" y="572.55" />
            </Array>
          </mxGeometry>
        </mxCell>
        <mxCell id="T5NWAOCeS2u0NAfTFQHm-106" value="" style="shape=partialRectangle;collapsible=0;dropTarget=0;pointerEvents=0;fillColor=none;points=[[0,0.5],[1,0.5]];portConstraint=eastwest;top=0;left=0;right=0;bottom=0;" vertex="1" parent="1">
          <mxGeometry x="760" y="170" width="230" height="16" as="geometry" />
        </mxCell>
        <mxCell id="T5NWAOCeS2u0NAfTFQHm-107" value="FK3" style="shape=partialRectangle;overflow=hidden;connectable=0;fillColor=none;top=0;left=0;bottom=0;right=0;" vertex="1" parent="T5NWAOCeS2u0NAfTFQHm-106">
          <mxGeometry width="31.363636363636363" height="16" as="geometry">
            <mxRectangle width="30" height="30" as="alternateBounds" />
          </mxGeometry>
        </mxCell>
        <mxCell id="T5NWAOCeS2u0NAfTFQHm-108" value="id_centro int NOT NULL" style="shape=partialRectangle;overflow=hidden;connectable=0;fillColor=none;top=0;left=0;bottom=0;right=0;align=left;spacingLeft=6;" vertex="1" parent="T5NWAOCeS2u0NAfTFQHm-106">
          <mxGeometry x="31.363636363636363" width="198.63636363636363" height="16" as="geometry">
            <mxRectangle width="190" height="30" as="alternateBounds" />
          </mxGeometry>
        </mxCell>
        <mxCell id="T5NWAOCeS2u0NAfTFQHm-109" value="          num_box int NOT NULL" style="shape=partialRectangle;overflow=hidden;connectable=0;fillColor=none;top=0;left=0;bottom=0;right=0;align=left;spacingLeft=6;" vertex="1" parent="1">
          <mxGeometry x="759" y="219" width="230" height="17" as="geometry">
            <mxRectangle width="190" height="30" as="alternateBounds" />
          </mxGeometry>
        </mxCell>
        <mxCell id="T5NWAOCeS2u0NAfTFQHm-48" value="hora time NOT NULL" style="shape=partialRectangle;overflow=hidden;connectable=0;fillColor=none;top=0;left=0;bottom=0;right=0;align=left;spacingLeft=6;" vertex="1" parent="1">
          <mxGeometry x="791.3636363636364" y="205" width="198.63636363636365" height="15" as="geometry">
            <mxRectangle width="190" height="30" as="alternateBounds" />
          </mxGeometry>
        </mxCell>
        <mxCell id="T5NWAOCeS2u0NAfTFQHm-110" value="         dirección varchar(30) NOT NULL" style="shape=partialRectangle;overflow=hidden;connectable=0;fillColor=none;top=0;left=0;bottom=0;right=0;align=left;spacingLeft=6;" vertex="1" parent="1">
          <mxGeometry x="450" y="410" width="265" height="20" as="geometry">
            <mxRectangle width="270" height="20" as="alternateBounds" />
          </mxGeometry>
        </mxCell>
        <mxCell id="T5NWAOCeS2u0NAfTFQHm-114" value="" style="shape=partialRectangle;collapsible=0;dropTarget=0;pointerEvents=0;fillColor=none;points=[[0,0.5],[1,0.5]];portConstraint=eastwest;top=0;left=0;right=0;bottom=0;" vertex="1" parent="1">
          <mxGeometry x="400" y="170" width="260" height="20" as="geometry" />
        </mxCell>
        <mxCell id="T5NWAOCeS2u0NAfTFQHm-115" value="" style="shape=partialRectangle;overflow=hidden;connectable=0;fillColor=none;top=0;left=0;bottom=0;right=0;" vertex="1" parent="T5NWAOCeS2u0NAfTFQHm-114">
          <mxGeometry width="35.45454545454545" height="20" as="geometry">
            <mxRectangle width="30" height="30" as="alternateBounds" />
          </mxGeometry>
        </mxCell>
        <mxCell id="T5NWAOCeS2u0NAfTFQHm-116" value="nombre_especialidad NOT NULL" style="shape=partialRectangle;overflow=hidden;connectable=0;fillColor=none;top=0;left=0;bottom=0;right=0;align=left;spacingLeft=6;" vertex="1" parent="T5NWAOCeS2u0NAfTFQHm-114">
          <mxGeometry x="35.45454545454545" width="224.54545454545456" height="20" as="geometry">
            <mxRectangle width="190" height="30" as="alternateBounds" />
          </mxGeometry>
        </mxCell>
        <mxCell id="T5NWAOCeS2u0NAfTFQHm-117" value="" style="shape=partialRectangle;collapsible=0;dropTarget=0;pointerEvents=0;fillColor=none;points=[[0,0.5],[1,0.5]];portConstraint=eastwest;top=0;left=0;right=0;bottom=0;" vertex="1" parent="1">
          <mxGeometry x="41" y="410" width="260" height="20" as="geometry" />
        </mxCell>
        <mxCell id="T5NWAOCeS2u0NAfTFQHm-118" value="" style="shape=partialRectangle;overflow=hidden;connectable=0;fillColor=none;top=0;left=0;bottom=0;right=0;" vertex="1" parent="T5NWAOCeS2u0NAfTFQHm-117">
          <mxGeometry width="35.45454545454545" height="20" as="geometry">
            <mxRectangle width="30" height="30" as="alternateBounds" />
          </mxGeometry>
        </mxCell>
        <mxCell id="T5NWAOCeS2u0NAfTFQHm-119" value="especialidad boolean NOT NULL" style="shape=partialRectangle;overflow=hidden;connectable=0;fillColor=none;top=0;left=0;bottom=0;right=0;align=left;spacingLeft=6;" vertex="1" parent="T5NWAOCeS2u0NAfTFQHm-117">
          <mxGeometry x="35.45454545454545" width="224.54545454545456" height="20" as="geometry">
            <mxRectangle width="190" height="30" as="alternateBounds" />
          </mxGeometry>
        </mxCell>
        <mxCell id="T5NWAOCeS2u0NAfTFQHm-120" value="" style="shape=partialRectangle;collapsible=0;dropTarget=0;pointerEvents=0;fillColor=none;points=[[0,0.5],[1,0.5]];portConstraint=eastwest;top=0;left=0;right=0;bottom=0;" vertex="1" parent="1">
          <mxGeometry x="40" y="460" width="260" height="20" as="geometry" />
        </mxCell>
        <mxCell id="T5NWAOCeS2u0NAfTFQHm-121" value="" style="shape=partialRectangle;overflow=hidden;connectable=0;fillColor=none;top=0;left=0;bottom=0;right=0;" vertex="1" parent="T5NWAOCeS2u0NAfTFQHm-120">
          <mxGeometry width="35.45454545454545" height="20" as="geometry">
            <mxRectangle width="30" height="30" as="alternateBounds" />
          </mxGeometry>
        </mxCell>
        <mxCell id="T5NWAOCeS2u0NAfTFQHm-122" value="nombre_especialidad NOT NULL" style="shape=partialRectangle;overflow=hidden;connectable=0;fillColor=none;top=0;left=0;bottom=0;right=0;align=left;spacingLeft=6;" vertex="1" parent="T5NWAOCeS2u0NAfTFQHm-120">
          <mxGeometry x="35.45454545454545" width="224.54545454545456" height="20" as="geometry">
            <mxRectangle width="190" height="30" as="alternateBounds" />
          </mxGeometry>
        </mxCell>
        <mxCell id="T5NWAOCeS2u0NAfTFQHm-131" value="          codigo_licencia int NOT NULL" style="shape=partialRectangle;overflow=hidden;connectable=0;fillColor=none;top=0;left=0;bottom=0;right=0;align=left;spacingLeft=6;" vertex="1" parent="1">
          <mxGeometry x="1390" y="309" width="230" height="17" as="geometry">
            <mxRectangle width="190" height="30" as="alternateBounds" />
          </mxGeometry>
        </mxCell>
        <mxCell id="T5NWAOCeS2u0NAfTFQHm-132" value="          diagnóstico varchar(100) NOT NULL" style="shape=partialRectangle;overflow=hidden;connectable=0;fillColor=none;top=0;left=0;bottom=0;right=0;align=left;spacingLeft=6;" vertex="1" parent="1">
          <mxGeometry x="1390" y="329" width="240" height="17" as="geometry">
            <mxRectangle width="190" height="30" as="alternateBounds" />
          </mxGeometry>
        </mxCell>
        <mxCell id="T5NWAOCeS2u0NAfTFQHm-133" value="          fecha_inicio date NOT NULL" style="shape=partialRectangle;overflow=hidden;connectable=0;fillColor=none;top=0;left=0;bottom=0;right=0;align=left;spacingLeft=6;" vertex="1" parent="1">
          <mxGeometry x="1390" y="347" width="240" height="17" as="geometry">
            <mxRectangle width="190" height="30" as="alternateBounds" />
          </mxGeometry>
        </mxCell>
        <mxCell id="T5NWAOCeS2u0NAfTFQHm-134" value="          fecha_termino date NOT NULL" style="shape=partialRectangle;overflow=hidden;connectable=0;fillColor=none;top=0;left=0;bottom=0;right=0;align=left;spacingLeft=6;" vertex="1" parent="1">
          <mxGeometry x="1390" y="366.5" width="240" height="17" as="geometry">
            <mxRectangle width="190" height="30" as="alternateBounds" />
          </mxGeometry>
        </mxCell>
      </root>
    </mxGraphModel>
  </diagram>
</mxfile>
